<?xml version="1.0" encoding="UTF-8" standalone="no"?>
<!-- Created with Inkscape (http://www.inkscape.org/) -->

<svg
   version="1.1"
   id="svg824"
   xml:space="preserve"
   width="1444.2174"
   height="874.66693"
   viewBox="0 0 1444.2174 874.66692"
   sodipodi:docname="Business Model Canvas-2023.svg"
   inkscape:version="1.1.1 (3bf5ae0d25, 2021-09-20)"
   xmlns:inkscape="http://www.inkscape.org/namespaces/inkscape"
   xmlns:sodipodi="http://sodipodi.sourceforge.net/DTD/sodipodi-0.dtd"
   xmlns="http://www.w3.org/2000/svg"
   xmlns:svg="http://www.w3.org/2000/svg"><defs
     id="defs828"><clipPath
       clipPathUnits="userSpaceOnUse"
       id="clipPath880"><path
         d="M 0,841.89 H 1190.551 V 0 H 0 Z"
         id="path878" /></clipPath><clipPath
       clipPathUnits="userSpaceOnUse"
       id="clipPath1100"><path
         d="M 0,841.89 H 1190.551 V 0 H 0 Z"
         id="path1098" /></clipPath><clipPath
       clipPathUnits="userSpaceOnUse"
       id="clipPath1134"><path
         d="M 0,841.89 H 1190.551 V 0 H 0 Z"
         id="path1132" /></clipPath><clipPath
       clipPathUnits="userSpaceOnUse"
       id="clipPath1232"><path
         d="M 0,841.89 H 1190.551 V 0 H 0 Z"
         id="path1230" /></clipPath><clipPath
       clipPathUnits="userSpaceOnUse"
       id="clipPath1248"><path
         d="M 0,841.89 H 1190.551 V 0 H 0 Z"
         id="path1246" /></clipPath></defs><sodipodi:namedview
     id="namedview826"
     pagecolor="#ffffff"
     bordercolor="#666666"
     borderopacity="1.0"
     inkscape:pageshadow="2"
     inkscape:pageopacity="0.0"
     inkscape:pagecheckerboard="0"
     showgrid="false"
     inkscape:snap-page="true"
     inkscape:snap-center="true"
     inkscape:snap-object-midpoints="true"
     fit-margin-top="0"
     fit-margin-left="0"
     fit-margin-right="0"
     fit-margin-bottom="0"
     inkscape:zoom="0.72069984"
     inkscape:cx="794.36676"
     inkscape:cy="482.17022"
     inkscape:window-width="2560"
     inkscape:window-height="1017"
     inkscape:window-x="-8"
     inkscape:window-y="-8"
     inkscape:window-maximized="1"
     inkscape:current-layer="g830" /><g
     id="g830"
     inkscape:groupmode="layer"
     inkscape:label="65d36b6f31059e94e2ff517c_A3-Business Model Canvas-2023"
     transform="matrix(1.3333333,0,0,-1.3333333,1.3333333e-4,1122.52)"><path
       d="m 1.5,840.39002 h 1080.163 v -653 H 1.5 Z"
       style="fill:#ffffff;fill-opacity:1;fill-rule:nonzero;stroke:none"
       id="path834" /><path
       d="M 1083.163,841.89002 H 0 v -656 h 1083.163 z m -3,-653 H 3 v 650 h 1077.163 z"
       style="fill:#000000;fill-opacity:1;fill-rule:nonzero;stroke:none"
       id="path836" /><g
       id="g838"
       transform="translate(1083.1629,377.88982)"><path
         d="M 0,0 H -1083.163 Z"
         style="fill:none;stroke:#000000;stroke-width:1;stroke-linecap:butt;stroke-linejoin:miter;stroke-miterlimit:10;stroke-dasharray:none;stroke-opacity:1"
         id="path840" /></g><g
       id="g842"
       transform="translate(216.6328,841.88982)"><path
         d="M 0,0 V -464"
         style="fill:none;stroke:#000000;stroke-width:1;stroke-linecap:butt;stroke-linejoin:miter;stroke-miterlimit:10;stroke-dasharray:none;stroke-opacity:1"
         id="path844" /></g><g
       id="g846"
       transform="translate(433.2653,841.88982)"><path
         d="M 0,0 V -464"
         style="fill:none;stroke:#000000;stroke-width:1;stroke-linecap:butt;stroke-linejoin:miter;stroke-miterlimit:10;stroke-dasharray:none;stroke-opacity:1"
         id="path848" /></g><g
       id="g850"
       transform="translate(649.8979,841.88982)"><path
         d="M 0,0 V -464"
         style="fill:none;stroke:#000000;stroke-width:1;stroke-linecap:butt;stroke-linejoin:miter;stroke-miterlimit:10;stroke-dasharray:none;stroke-opacity:1"
         id="path852" /></g><g
       id="g854"
       transform="translate(866.5304,841.88982)"><path
         d="M 0,0 V -464"
         style="fill:none;stroke:#000000;stroke-width:1;stroke-linecap:butt;stroke-linejoin:miter;stroke-miterlimit:10;stroke-dasharray:none;stroke-opacity:1"
         id="path856" /></g><g
       id="g858"
       transform="translate(216.6328,609.88982)"><path
         d="M 0,0 H 216.633"
         style="fill:none;stroke:#000000;stroke-width:1;stroke-linecap:butt;stroke-linejoin:miter;stroke-miterlimit:10;stroke-dasharray:none;stroke-opacity:1"
         id="path860" /></g><g
       id="g862"
       transform="translate(649.8979,609.88982)"><path
         d="M 0,0 H 216.633"
         style="fill:none;stroke:#000000;stroke-width:1;stroke-linecap:butt;stroke-linejoin:miter;stroke-miterlimit:10;stroke-dasharray:none;stroke-opacity:1"
         id="path864" /></g><g
       id="g866"
       transform="translate(541.5816,377.88982)"><path
         d="M 0,0 V -192"
         style="fill:none;stroke:#000000;stroke-width:1;stroke-linecap:butt;stroke-linejoin:miter;stroke-miterlimit:10;stroke-dasharray:none;stroke-opacity:1"
         id="path868" /></g><text
       transform="scale(1,-1)"
       style="font-variant:normal;font-weight:normal;font-stretch:normal;font-size:12.5px;font-family:'TWK Everett';-inkscape-font-specification:TWKEverett-Regular;writing-mode:lr-tb;fill:#000000;fill-opacity:1;fill-rule:nonzero;stroke:none"
       id="text872"
       x="557.04419"
       y="-348.89114"><tspan
         x="557.04419 565.6817 573.04419 580.15668 587.59418 595.1192 602.58173 610.01923 613.14423 621.79419 626.64423 631.15668 638.59418 645.88171 657.4317"
         y="-348.89114"
         sodipodi:role="line"
         id="tspan870">Revenue Streams</tspan></text><g
       id="g882"
       transform="translate(839.9909,799.77642)"><path
         d="m 0,0 -12.933,13.333 c -2.329,2.28 -2.911,5.806 -1.44,8.714 1.943,3.782 6.585,5.274 10.367,3.33 0.697,-0.358 1.335,-0.82 1.893,-1.37 L 0,22.08 2.113,24.007 c 3.033,2.986 7.913,2.948 10.899,-0.085 0,-0.001 10e-4,-0.002 10e-4,-0.002 0.534,-0.555 0.984,-1.187 1.334,-1.873 1.481,-2.904 0.909,-6.433 -1.414,-8.72 z"
         style="fill:none;stroke:#000000;stroke-width:1.25;stroke-linecap:square;stroke-linejoin:miter;stroke-miterlimit:4;stroke-dasharray:none;stroke-opacity:1"
         id="path884" /></g><g
       id="g886"
       transform="translate(1048.547,815.99812)"><path
         d="m 0,0 c -0.432,-0.004 -0.78,-0.358 -0.776,-0.79 0,-0.003 0,-0.005 0,-0.008 0.019,-0.435 0.376,-0.779 0.812,-0.783 0.436,0.008 0.784,0.368 0.776,0.805 v 0 C 0.797,-0.35 0.455,-0.008 0.029,0.007"
         style="fill:#000000;fill-opacity:1;fill-rule:nonzero;stroke:#000000;stroke-width:1.25;stroke-linecap:round;stroke-linejoin:round;stroke-miterlimit:4;stroke-dasharray:none;stroke-opacity:1"
         id="path888" /></g><g
       id="g890"
       transform="translate(1048.4895,805.98932)"><path
         d="M 0,0 H -7.207 V 3.032"
         style="fill:none;stroke:#000000;stroke-width:1.25;stroke-linecap:butt;stroke-linejoin:miter;stroke-miterlimit:4;stroke-dasharray:none;stroke-opacity:1"
         id="path892" /></g><g
       id="g894"
       transform="translate(1044.4011,801.90812)"><path
         d="M 0,0 4.088,4.081"
         style="fill:none;stroke:#000000;stroke-width:1.25;stroke-linecap:round;stroke-linejoin:miter;stroke-miterlimit:4;stroke-dasharray:none;stroke-opacity:1"
         id="path896" /></g><g
       id="g898"
       transform="translate(1041.2828,809.02142)"><path
         d="m 0,0 h -2.307 c -0.924,0 -1.674,0.749 -1.674,1.674 0,0.246 0.054,0.489 0.158,0.711 l 4.714,8.817 c 2.817,5.108 7.674,7.106 12.437,7.106 8.171,0.001 14.795,-6.622 14.797,-14.792 0.001,-8.171 -6.622,-14.796 -14.793,-14.797 -3.821,0 -7.494,1.478 -10.25,4.125"
         style="fill:none;stroke:#000000;stroke-width:1.25;stroke-linecap:square;stroke-linejoin:miter;stroke-miterlimit:4;stroke-dasharray:none;stroke-opacity:1"
         id="path900" /></g><g
       id="g902"
       transform="translate(407.7858,797.70982)"><path
         d="M 0,0 3.94,14.513 H -1.32 L 2.64,30.36 H 13.2 L 6.607,19.8 h 6.6 z"
         style="fill:none;stroke:#000000;stroke-width:1.25;stroke-linecap:square;stroke-linejoin:miter;stroke-miterlimit:4;stroke-dasharray:none;stroke-opacity:1"
         id="path904" /></g><g
       id="g906"
       transform="translate(194.1685,802.79242)"><path
         d="m 0,0 c -3.277,-4.814 -9.836,-6.06 -14.65,-2.782 -4.814,3.277 -6.06,9.836 -2.783,14.65 3.277,4.814 9.837,6.06 14.651,2.782 1.921,-1.308 3.357,-3.215 4.083,-5.423"
         style="fill:none;stroke:#000000;stroke-width:1.25;stroke-linecap:square;stroke-linejoin:miter;stroke-miterlimit:5.833;stroke-dasharray:none;stroke-opacity:1"
         id="path908" /></g><g
       id="g910"
       transform="translate(185.957,823.88152)"><path
         d="m 0,0 c 3.276,4.815 9.835,6.063 14.65,2.787 4.814,-3.276 6.062,-9.835 2.786,-14.65 -3.275,-4.815 -9.834,-6.062 -14.649,-2.787 -1.923,1.308 -3.359,3.215 -4.085,5.423"
         style="fill:none;stroke:#000000;stroke-width:1.25;stroke-linecap:square;stroke-linejoin:miter;stroke-miterlimit:5.833;stroke-dasharray:none;stroke-opacity:1"
         id="path912" /></g><g
       id="g914"
       transform="translate(623.3,798.69092)"><path
         d="M 0,0 V 21.959"
         style="fill:none;stroke:#000000;stroke-width:1.25;stroke-linecap:square;stroke-linejoin:miter;stroke-miterlimit:6;stroke-dasharray:none;stroke-opacity:1"
         id="path916" /></g><g
       id="g918"
       transform="translate(630.239,824.09992)"><path
         d="m 0,0 c -2.045,-1.602 -4.391,-2.776 -6.9,-3.45 0.673,2.509 1.846,4.856 3.45,6.9 2.145,2.145 3.36,1.813 4.319,0.864 C 1.828,3.365 2.145,2.145 0,0 Z"
         style="fill:none;stroke:#000000;stroke-width:1.25;stroke-linecap:butt;stroke-linejoin:miter;stroke-miterlimit:6;stroke-dasharray:none;stroke-opacity:1"
         id="path920" /></g><g
       id="g922"
       transform="translate(616.3609,824.09992)"><path
         d="M 0,0 C 2.045,-1.602 4.391,-2.776 6.9,-3.45 6.227,-0.941 5.054,1.406 3.45,3.45 1.305,5.595 0.09,5.263 -0.869,4.314 -1.827,3.365 -2.145,2.145 0,0 Z"
         style="fill:none;stroke:#000000;stroke-width:1.25;stroke-linecap:square;stroke-linejoin:miter;stroke-miterlimit:6;stroke-dasharray:none;stroke-opacity:1"
         id="path924" /></g><path
       d="M 635.499,797.69102 H 611.1 v 14.639 h 24.399 z"
       style="fill:none;stroke:#000000;stroke-width:1.25;stroke-linecap:square;stroke-linejoin:miter;stroke-miterlimit:6;stroke-dasharray:none;stroke-opacity:1"
       id="path926" /><path
       d="M 637.939,812.33002 H 608.66 v 7.32 h 29.279 z"
       style="fill:none;stroke:#000000;stroke-width:1.25;stroke-linecap:square;stroke-linejoin:miter;stroke-miterlimit:6;stroke-dasharray:none;stroke-opacity:1"
       id="path928" /><g
       id="g930"
       transform="translate(420.1255,569.74052)"><path
         d="M 0,0 C 0,3.5 -2.837,6.337 -6.337,6.337 -9.837,6.337 -12.674,3.5 -12.674,0 Z"
         style="fill:none;stroke:#000000;stroke-width:1.25;stroke-linecap:square;stroke-linejoin:miter;stroke-miterlimit:6;stroke-dasharray:none;stroke-opacity:1"
         id="path932" /></g><g
       id="g934"
       transform="translate(417.6611,582.75602)"><path
         d="m 0,0 c 0,-2.139 -1.734,-3.873 -3.873,-3.873 -2.138,0 -3.872,1.734 -3.872,3.873 0,2.139 1.734,3.873 3.872,3.873 C -1.734,3.873 0,2.139 0,0 Z"
         style="fill:none;stroke:#000000;stroke-width:1.25;stroke-linecap:round;stroke-linejoin:round;stroke-miterlimit:6;stroke-dasharray:none;stroke-opacity:1"
         id="path936" /></g><g
       id="g938"
       transform="translate(405.8099,579.22182)"><path
         d="m 0,0 h -5.749 v 3.688 h -9.877 V -9.481 H 1.642"
         style="fill:none;stroke:#000000;stroke-width:1.25;stroke-linecap:square;stroke-linejoin:miter;stroke-miterlimit:6;stroke-dasharray:none;stroke-opacity:1"
         id="path940" /></g><g
       id="g942"
       transform="translate(398.0854,582.90972)"><path
         d="m 0,0 h -5.926 l 1.087,10.381 h 3.951 z"
         style="fill:none;stroke:#000000;stroke-width:1.25;stroke-linecap:square;stroke-linejoin:miter;stroke-miterlimit:6;stroke-dasharray:none;stroke-opacity:1"
         id="path944" /></g><g
       id="g946"
       transform="translate(393.4449,589.06302)"><path
         d="M 0,0 H 4.025"
         style="fill:none;stroke:#000000;stroke-width:1.25;stroke-linecap:square;stroke-linejoin:miter;stroke-miterlimit:6;stroke-dasharray:none;stroke-opacity:1"
         id="path948" /></g><g
       id="g950"
       transform="translate(395.4571,596.32812)"><path
         d="M 0,0 C 6.107,8.143 12.214,-2.714 18.321,2.714 10.857,-7.464 5.429,3.393 0,0 Z"
         style="fill:none;stroke:#000000;stroke-width:1.25;stroke-linecap:square;stroke-linejoin:bevel;stroke-miterlimit:6;stroke-dasharray:none;stroke-opacity:1"
         id="path952" /></g><g
       id="g954"
       transform="translate(394.1364,574.27942)"><path
         d="M 0,0 H 2.052"
         style="fill:none;stroke:#000000;stroke-width:1.25;stroke-linecap:square;stroke-linejoin:miter;stroke-miterlimit:6;stroke-dasharray:none;stroke-opacity:1"
         id="path956" /></g><g
       id="g958"
       transform="translate(400.2925,574.27942)"><path
         d="M 0,0 H 2.052"
         style="fill:none;stroke:#000000;stroke-width:1.25;stroke-linecap:square;stroke-linejoin:miter;stroke-miterlimit:6;stroke-dasharray:none;stroke-opacity:1"
         id="path960" /></g><g
       id="g962"
       transform="translate(394.1364,578.37082)"><path
         d="M 0,0 H 2.052"
         style="fill:none;stroke:#000000;stroke-width:1.25;stroke-linecap:square;stroke-linejoin:miter;stroke-miterlimit:6;stroke-dasharray:none;stroke-opacity:1"
         id="path964" /></g><g
       id="g966"
       transform="translate(828.9452,577.81502)"><path
         d="m 0,0 c 2.241,0 4.058,-1.817 4.058,-4.058 0,-2.241 -1.817,-4.058 -4.058,-4.058 -2.241,0 -4.058,1.817 -4.058,4.058 C -4.058,-1.817 -2.241,0 0,0 Z"
         style="fill:none;stroke:#000000;stroke-width:1.25;stroke-linecap:round;stroke-linejoin:round;stroke-miterlimit:6;stroke-dasharray:none;stroke-opacity:1"
         id="path968" /></g><g
       id="g970"
       transform="translate(846.8009,577.81502)"><path
         d="m 0,0 c 2.241,0 4.058,-1.817 4.058,-4.058 0,-2.241 -1.817,-4.058 -4.058,-4.058 -2.241,0 -4.058,1.817 -4.058,4.058 C -4.058,-1.817 -2.241,0 0,0 Z"
         style="fill:none;stroke:#000000;stroke-width:1.25;stroke-linecap:round;stroke-linejoin:round;stroke-miterlimit:6;stroke-dasharray:none;stroke-opacity:1"
         id="path972" /></g><g
       id="g974"
       transform="translate(829.7568,581.06152)"><path
         d="M 0,0 V 16.232 H 24.349 V -6.493 h -3.247"
         style="fill:none;stroke:#000000;stroke-width:1.25;stroke-linecap:square;stroke-linejoin:miter;stroke-miterlimit:6;stroke-dasharray:none;stroke-opacity:1"
         id="path976" /></g><g
       id="g978"
       transform="translate(833.0033,574.56852)"><path
         d="M 0,0 H 9.739"
         style="fill:none;stroke:#000000;stroke-width:1.25;stroke-linecap:square;stroke-linejoin:miter;stroke-miterlimit:6;stroke-dasharray:none;stroke-opacity:1"
         id="path980" /></g><g
       id="g982"
       transform="translate(824.0564,572.94532)"><path
         d="m 0,0 h -7.285 v 11.363 c 4.738,6.999 2.907,6.493 6.492,6.493 H 5.7"
         style="fill:none;stroke:#000000;stroke-width:1.25;stroke-linecap:square;stroke-linejoin:miter;stroke-miterlimit:6;stroke-dasharray:none;stroke-opacity:1"
         id="path984" /></g><g
       id="g986"
       transform="translate(816.7709,576.19172)"><path
         d="M 0,0 H 8.116"
         style="fill:none;stroke:#000000;stroke-width:1.25;stroke-linecap:square;stroke-linejoin:miter;stroke-miterlimit:6;stroke-dasharray:none;stroke-opacity:1"
         id="path988" /></g><g
       id="g990"
       transform="translate(816.7709,583.49632)"><path
         d="M 0,0 H 6.493 C 7.389,0 8.116,0.727 8.116,1.623 V 7.305"
         style="fill:none;stroke:#000000;stroke-width:1.25;stroke-linecap:square;stroke-linejoin:miter;stroke-miterlimit:6;stroke-dasharray:none;stroke-opacity:1"
         id="path992" /></g><g
       id="g994"
       transform="translate(1056.497,349.80782)"><path
         d="M 0,0 V 2.13"
         style="fill:none;stroke:#000000;stroke-width:1.25;stroke-linecap:square;stroke-linejoin:miter;stroke-miterlimit:6;stroke-dasharray:none;stroke-opacity:1"
         id="path996" /></g><g
       id="g998"
       transform="translate(1060.0466,349.80782)"><path
         d="m 0,0 h -5.197 c -1.05,0 -1.902,-0.852 -1.902,-1.903 -0.006,-0.777 0.468,-1.477 1.193,-1.76 l 4.713,-1.179 c 0.981,-0.378 1.469,-1.479 1.09,-2.46 -0.286,-0.742 -1.004,-1.227 -1.8,-1.217 h -5.196"
         style="fill:none;stroke:#000000;stroke-width:1.25;stroke-linecap:square;stroke-linejoin:miter;stroke-miterlimit:6;stroke-dasharray:none;stroke-opacity:1"
         id="path1000" /></g><g
       id="g1002"
       transform="translate(1056.497,339.15902)"><path
         d="M 0,0 V 2.13"
         style="fill:none;stroke:#000000;stroke-width:1.25;stroke-linecap:square;stroke-linejoin:miter;stroke-miterlimit:6;stroke-dasharray:none;stroke-opacity:1"
         id="path1004" /></g><g
       id="g1006"
       transform="translate(1051.4605,358.32682)"><path
         d="M 0,0 H 9.939"
         style="fill:none;stroke:#000000;stroke-width:1.25;stroke-linecap:square;stroke-linejoin:round;stroke-miterlimit:6;stroke-dasharray:none;stroke-opacity:1"
         id="path1008" /></g><g
       id="g1010"
       transform="translate(1059.9654,358.49262)"><path
         d="M 0,0 C 0.307,1.859 0.886,3.663 1.718,5.353 1.859,5.617 1.819,5.94 1.619,6.162 1.416,6.39 1.087,6.46 0.809,6.332 L -2.172,5.055 -2.868,6.943 C -3.012,7.308 -3.425,7.486 -3.789,7.342 -3.972,7.27 -4.116,7.126 -4.188,6.943 L -4.955,5.055 -7.923,6.332 C -8.201,6.46 -8.529,6.39 -8.732,6.162 -8.932,5.94 -8.972,5.617 -8.831,5.353 -7.999,3.663 -7.42,1.859 -7.113,0"
         style="fill:none;stroke:#000000;stroke-width:1.25;stroke-linecap:butt;stroke-linejoin:miter;stroke-miterlimit:6;stroke-dasharray:none;stroke-opacity:1"
         id="path1012" /></g><g
       id="g1014"
       transform="translate(1059.2697,357.86792)"><path
         d="m 0,0 c 0,0 9.939,-7.809 9.939,-14.639 0,-7.099 -5.68,-9.498 -12.779,-9.498 -7.099,0 -12.778,2.442 -12.778,9.498 0,6.83 9.939,14.639 9.939,14.639"
         style="fill:none;stroke:#000000;stroke-width:1.25;stroke-linecap:square;stroke-linejoin:round;stroke-miterlimit:6;stroke-dasharray:none;stroke-opacity:1"
         id="path1016" /></g><g
       id="g1018"
       transform="translate(503.9627,356.26372)"><path
         d="m 0,0 c 0,-1.563 1.267,-2.829 2.829,-2.829 1.563,0 2.83,1.266 2.83,2.829 0,1.563 -1.267,2.829 -2.83,2.829 C 1.267,2.829 0,1.563 0,0 Z"
         style="fill:none;stroke:#000000;stroke-width:1.25;stroke-linecap:round;stroke-linejoin:round;stroke-miterlimit:7.5;stroke-dasharray:none;stroke-opacity:1"
         id="path1020" /></g><g
       id="g1022"
       transform="translate(496.8783,366.17602)"><path
         d="M 0,0 9.195,-9.195"
         style="fill:none;stroke:#000000;stroke-width:1.25;stroke-linecap:square;stroke-linejoin:miter;stroke-miterlimit:7.5;stroke-dasharray:none;stroke-opacity:1"
         id="path1024" /></g><g
       id="g1026"
       transform="translate(499.7288,362.50262)"><path
         d="M 0,0 0.151,-10.912 17.892,-28.654 29.318,-17.228 11.608,0.483 0.638,0.831"
         style="fill:none;stroke:#000000;stroke-width:1.25;stroke-linecap:square;stroke-linejoin:miter;stroke-miterlimit:7.5;stroke-dasharray:none;stroke-opacity:1"
         id="path1028" /></g><g
       id="g1030"
       transform="translate(513.8301,349.21112)"><path
         d="M 0,0 -1.222,1.222"
         style="fill:none;stroke:#000000;stroke-width:1.25;stroke-linecap:square;stroke-linejoin:miter;stroke-miterlimit:6;stroke-dasharray:none;stroke-opacity:1"
         id="path1032" /></g><g
       id="g1034"
       transform="translate(515.8663,351.24732)"><path
         d="m 0,0 -2.981,-2.981 c -0.603,-0.603 -0.603,-1.58 0,-2.183 0.442,-0.449 1.116,-0.579 1.694,-0.326 l 3.38,2.028 C 2.873,-3.116 3.784,-3.468 4.13,-4.247 4.391,-4.838 4.258,-5.528 3.795,-5.978 L 0.814,-8.959"
         style="fill:none;stroke:#000000;stroke-width:1.25;stroke-linecap:square;stroke-linejoin:miter;stroke-miterlimit:6;stroke-dasharray:none;stroke-opacity:1"
         id="path1036" /></g><g
       id="g1038"
       transform="translate(519.9387,343.10262)"><path
         d="M 0,0 -1.222,1.222"
         style="fill:none;stroke:#000000;stroke-width:1.25;stroke-linecap:square;stroke-linejoin:miter;stroke-miterlimit:6;stroke-dasharray:none;stroke-opacity:1"
         id="path1040" /></g><text
       transform="scale(1,-1)"
       style="font-variant:normal;font-weight:normal;font-stretch:normal;font-size:12.5px;font-family:'TWK Everett';-inkscape-font-specification:TWKEverett-Regular;writing-mode:lr-tb;fill:#000000;fill-opacity:1;fill-rule:nonzero;stroke:none"
       id="text1126"
       x="14.4608"
       y="-808.88922"><tspan
         x="14.4608 22.823299 30.185801 36.9608 40.0858 48.5858 55.873299 60.535801 65.385796 72.910797 80.348297 85.010803 91.635803 99.160797 102.3358 110.3108 116.9358 228.0983 236.4608 243.8233 250.5983 253.4108 262.83578 270.04828 274.89828 278.07327 285.26077 288.43579 293.2858 296.46078 303.89828 444.73578 453.3483 460.63577 463.81079 471.27328 478.71078 481.83578 490.4733 494.98578 502.5983 510.57327 518.18579 524.81079 527.98584 532.83582 536.0108 543.62329 551.14832 661.37329 671.12329 678.58582 685.08582 689.83582 697.4483 708.99829 716.43579 720.79834 723.92334 732.56079 739.99829 743.17334 750.36084 755.21082 758.3858 765.99829 773.52332 780.14832 787.67334 790.84833 798.8233"
         y="-808.88922"
         sodipodi:role="line"
         id="tspan1118">Key Partnerships Key ActivitiesValue PropositionsCustomer Relationships</tspan><tspan
         x="228.11079 236.4733 243.8358 250.61079 253.73579 262.37329 269.81079 276.43579 284.04828 291.51077 296.02328 303.3483 310.7858 661.37329 671.12329 678.64832 685.93579 693.46082 700.98584 708.42334 711.59833"
         y="-580.31421"
         sodipodi:role="line"
         id="tspan1120">Key ResourcesChannels</tspan><tspan
         x="14.4733 24.223299 31.8358 38.3358 43.185799 46.310799 54.9608 59.810799 64.473297 71.935799 79.1483 83.998299 91.4608 95.973297"
         y="-348.88922"
         sodipodi:role="line"
         id="tspan1122">Cost Structure</tspan><tspan
         x="877.99829 887.74829 895.21082 901.71082 906.46082 914.0733 925.62329 933.06079 937.42334 940.54834 949.1983 956.6358 964.61084 976.16083 983.59833 991.02332 995.87329"
         y="-808.88922"
         sodipodi:role="line"
         id="tspan1124">Customer Segments</tspan></text></g></svg>
