<?xml version="1.0" encoding="UTF-8" standalone="no"?>
<!-- Created with Inkscape (http://www.inkscape.org/) -->

<svg
   version="1.1"
   id="svg824"
   xml:space="preserve"
   width="1449.7257"
   height="711.93866"
   viewBox="0 0 1449.7257 711.93865"
   sodipodi:docname="Value Proposition Canvas-2023.svg"
   inkscape:version="1.1.1 (3bf5ae0d25, 2021-09-20)"
   xmlns:inkscape="http://www.inkscape.org/namespaces/inkscape"
   xmlns:sodipodi="http://sodipodi.sourceforge.net/DTD/sodipodi-0.dtd"
   xmlns="http://www.w3.org/2000/svg"
   xmlns:svg="http://www.w3.org/2000/svg"><defs
     id="defs828"><clipPath
       clipPathUnits="userSpaceOnUse"
       id="clipPath902"><path
         d="M 0,841.89 H 1190.551 V 0 H 0 Z"
         id="path900" /></clipPath><clipPath
       clipPathUnits="userSpaceOnUse"
       id="clipPath1104"><path
         d="M 0,841.89 H 1190.551 V 0 H 0 Z"
         id="path1102" /></clipPath><clipPath
       clipPathUnits="userSpaceOnUse"
       id="clipPath1136"><path
         d="M 0,841.89 H 1190.551 V 0 H 0 Z"
         id="path1134" /></clipPath><clipPath
       clipPathUnits="userSpaceOnUse"
       id="clipPath1188"><path
         d="M 0,841.89 H 1190.551 V 0 H 0 Z"
         id="path1186" /></clipPath></defs><sodipodi:namedview
     id="namedview826"
     pagecolor="#ffffff"
     bordercolor="#666666"
     borderopacity="1.0"
     inkscape:pageshadow="2"
     inkscape:pageopacity="0.0"
     inkscape:pagecheckerboard="0"
     showgrid="false"
     fit-margin-top="0"
     fit-margin-left="0"
     fit-margin-right="0"
     fit-margin-bottom="0"
     inkscape:zoom="0.72069984"
     inkscape:cx="597.33605"
     inkscape:cy="219.92512"
     inkscape:window-width="2560"
     inkscape:window-height="1017"
     inkscape:window-x="-8"
     inkscape:window-y="-8"
     inkscape:window-maximized="1"
     inkscape:current-layer="g830" /><g
     id="g830"
     inkscape:groupmode="layer"
     inkscape:label="Value Proposition Canvas-2023"
     transform="matrix(1.3333333,0,0,-1.3333333,-71.591998,891.61078)"><path
       d="M 55.194,646.75 H 540.38 V 161.563 H 55.194 Z"
       style="fill:#ffffff;fill-opacity:1;fill-rule:nonzero;stroke:none"
       id="path834" /><path
       d="M 541.88,648.249 H 53.694 V 160.063 H 541.88 Z m -3,-485.186 H 56.694 V 645.249 H 538.88 Z"
       style="fill:#000000;fill-opacity:1;fill-rule:nonzero;stroke:none"
       id="path836" /><g
       id="g838"
       transform="translate(297.7872,404.1559)"><path
         d="M 0,0 H 244.092"
         style="fill:none;stroke:#000000;stroke-width:1;stroke-linecap:butt;stroke-linejoin:miter;stroke-miterlimit:10;stroke-dasharray:none;stroke-opacity:1"
         id="path840" /></g><g
       id="g842"
       transform="translate(54.6942,647.2494)"><path
         d="M 0,0 243.094,-243.094"
         style="fill:none;stroke:#000000;stroke-width:1;stroke-linecap:butt;stroke-linejoin:miter;stroke-miterlimit:10;stroke-dasharray:none;stroke-opacity:1"
         id="path844" /></g><g
       id="g846"
       transform="translate(54.6942,161.0634)"><path
         d="M 0,0 243.093,243.093"
         style="fill:none;stroke:#000000;stroke-width:1;stroke-linecap:butt;stroke-linejoin:miter;stroke-miterlimit:10;stroke-dasharray:none;stroke-opacity:1"
         id="path848" /></g><g
       id="g888"
       transform="translate(567.3925,404.1563)"><path
         d="M 0,0 V 0 H -50.886"
         style="fill:none;stroke:#000000;stroke-width:1;stroke-linecap:butt;stroke-linejoin:miter;stroke-miterlimit:10;stroke-dasharray:none;stroke-opacity:1"
         id="path890" /></g><g
       id="g892"
       transform="translate(558.8201,412.7287)"><path
         d="M 0,0 8.572,-8.572 0,-17.145"
         style="fill:none;stroke:#000000;stroke-width:1;stroke-linecap:butt;stroke-linejoin:miter;stroke-miterlimit:10;stroke-dasharray:none;stroke-opacity:1"
         id="path894" /></g><g
       id="g904"
       transform="translate(379.0213,251.5079)"><path
         d="m 0,0 c -3.216,-3.349 -8.538,-3.456 -11.887,-0.24 -3.348,3.216 -3.456,8.538 -0.24,11.887 0.08,0.084 0.16,0.164 0.24,0.24 L 1.06,24.84 c 3.291,3.268 8.602,3.268 11.893,0 3.268,-3.291 3.268,-8.602 0,-11.893 z"
         style="fill:none;stroke:#000000;stroke-width:1.25;stroke-linecap:square;stroke-linejoin:miter;stroke-miterlimit:4;stroke-dasharray:none;stroke-opacity:1"
         id="path906" /></g><g
       id="g908"
       transform="translate(373.608,269.8613)"><path
         d="M 0,0 11.88,-11.873"
         style="fill:none;stroke:#000000;stroke-width:1.25;stroke-linecap:square;stroke-linejoin:miter;stroke-miterlimit:4;stroke-dasharray:none;stroke-opacity:1"
         id="path910" /></g><g
       id="g912"
       transform="translate(381.9147,273.6079)"><path
         d="M 0,0 C 2.016,2.025 5.291,2.033 7.316,0.017 7.322,0.011 7.328,0.006 7.333,0"
         style="fill:none;stroke:#000000;stroke-width:1.25;stroke-linecap:square;stroke-linejoin:miter;stroke-miterlimit:4;stroke-dasharray:none;stroke-opacity:1"
         id="path914" /></g><g
       id="g916"
       transform="translate(316.5817,432.6359)"><path
         d="m 0,0 c -5.578,-4.371 -11.981,-7.572 -18.825,-9.412 1.836,6.845 5.038,13.249 9.413,18.824 5.851,5.851 9.166,4.946 11.782,2.357 C 4.986,9.179 5.851,5.851 0,0"
         style="fill:#ffffff;fill-opacity:1;fill-rule:nonzero;stroke:none"
         id="path918" /></g><g
       id="g920"
       transform="translate(316.5817,432.6359)"><path
         d="m 0,0 c -5.578,-4.371 -11.981,-7.572 -18.825,-9.412 1.836,6.845 5.038,13.249 9.413,18.824 5.851,5.851 9.166,4.946 11.782,2.357 C 4.986,9.179 5.851,5.851 0,0 Z"
         style="fill:none;stroke:#000000;stroke-width:3;stroke-linecap:butt;stroke-linejoin:miter;stroke-miterlimit:6;stroke-dasharray:none;stroke-opacity:1"
         id="path922" /></g><g
       id="g924"
       transform="translate(278.7196,432.6359)"><path
         d="M 0,0 C 5.578,-4.371 11.981,-7.572 18.824,-9.412 16.989,-2.567 13.787,3.837 9.412,9.412 3.561,15.263 0.246,14.358 -2.37,11.769 -4.986,9.179 -5.851,5.851 0,0"
         style="fill:#ffffff;fill-opacity:1;fill-rule:nonzero;stroke:none"
         id="path926" /></g><g
       id="g928"
       transform="translate(278.7196,432.6359)"><path
         d="M 0,0 C 5.578,-4.371 11.981,-7.572 18.824,-9.412 16.989,-2.567 13.787,3.837 9.412,9.412 3.561,15.263 0.246,14.358 -2.37,11.769 -4.986,9.179 -5.851,5.851 0,0 Z"
         style="fill:none;stroke:#000000;stroke-width:3;stroke-linecap:square;stroke-linejoin:miter;stroke-miterlimit:6;stroke-dasharray:none;stroke-opacity:1"
         id="path930" /></g><path
       d="m 330.933,362.81 h -66.565 v 39.939 h 66.565 z"
       style="fill:#ffffff;fill-opacity:1;fill-rule:nonzero;stroke:#000000;stroke-width:3;stroke-linecap:square;stroke-linejoin:miter;stroke-miterlimit:6;stroke-dasharray:none;stroke-opacity:1"
       id="path932" /><path
       d="m 337.59,402.749 h -79.878 v 19.969 h 79.878 z"
       style="fill:#ffffff;fill-opacity:1;fill-rule:nonzero;stroke:#000000;stroke-width:3;stroke-linecap:square;stroke-linejoin:miter;stroke-miterlimit:6;stroke-dasharray:none;stroke-opacity:1"
       id="path934" /><g
       id="g936"
       transform="translate(297.6506,363.3153)"><path
         d="M 0,0 V 59.908"
         style="fill:#ffffff;fill-opacity:1;fill-rule:nonzero;stroke:#000000;stroke-width:3;stroke-linecap:square;stroke-linejoin:miter;stroke-miterlimit:6;stroke-dasharray:none;stroke-opacity:1"
         id="path938" /></g><g
       id="g940"
       transform="translate(364.2326,530.3112)"><path
         d="M 0,0 H 30.045"
         style="fill:none;stroke:#000000;stroke-width:1.25;stroke-linecap:square;stroke-linejoin:miter;stroke-miterlimit:6;stroke-dasharray:none;stroke-opacity:1"
         id="path942" /></g><g
       id="g944"
       transform="translate(367.4984,543.3744)"><path
         d="M 0,0 23.514,15.676"
         style="fill:none;stroke:#000000;stroke-width:1.25;stroke-linecap:butt;stroke-linejoin:miter;stroke-miterlimit:6;stroke-dasharray:none;stroke-opacity:1"
         id="path946" /></g><g
       id="g948"
       transform="translate(390.3591,553.825)"><path
         d="M 0,0 0.653,5.225 -4.572,5.878"
         style="fill:none;stroke:#000000;stroke-width:1.25;stroke-linecap:square;stroke-linejoin:miter;stroke-miterlimit:6;stroke-dasharray:none;stroke-opacity:1"
         id="path950" /></g><g
       id="g952"
       transform="translate(365.5635,530.4782)"><path
         d="M 0,0 V 3.767 H 3.889 V -0.047"
         style="fill:none;stroke:#000000;stroke-width:1.25;stroke-linecap:butt;stroke-linejoin:miter;stroke-miterlimit:6;stroke-dasharray:none;stroke-opacity:1"
         id="path954" /></g><g
       id="g956"
       transform="translate(389.0704,530.0311)"><path
         d="M 0,0 V 19.872 H 3.889 V -0.141"
         style="fill:none;stroke:#000000;stroke-width:1.25;stroke-linecap:butt;stroke-linejoin:miter;stroke-miterlimit:6;stroke-dasharray:none;stroke-opacity:1"
         id="path958" /></g><g
       id="g960"
       transform="translate(381.206,530.7137)"><path
         d="M 0,0 V 13.962 H 3.889 V -0.141"
         style="fill:none;stroke:#000000;stroke-width:1.25;stroke-linecap:butt;stroke-linejoin:miter;stroke-miterlimit:6;stroke-dasharray:none;stroke-opacity:1"
         id="path962" /></g><g
       id="g964"
       transform="translate(373.2983,530.5253)"><path
         d="M 0,0 V 8.872 H 3.889 V -0.094"
         style="fill:none;stroke:#000000;stroke-width:1.25;stroke-linecap:butt;stroke-linejoin:miter;stroke-miterlimit:6;stroke-dasharray:none;stroke-opacity:1"
         id="path966" /></g><g
       id="g968"
       transform="translate(874.0123,136.2545)"><path
         d="m 0,0 c -70.911,0 -137.578,27.614 -187.72,77.756 -50.142,50.142 -77.756,116.809 -77.756,187.721 0,70.911 27.614,137.578 77.756,187.72 50.142,50.142 116.809,77.757 187.72,77.757 70.911,0 137.578,-27.615 187.72,-77.757 50.142,-50.142 77.756,-116.809 77.756,-187.72 0,-70.912 -27.614,-137.579 -77.756,-187.721 C 137.578,27.614 70.911,0 0,0"
         style="fill:#ffffff;fill-opacity:1;fill-rule:nonzero;stroke:none"
         id="path970" /></g><g
       id="g972"
       transform="translate(874.0123,668.7081)"><path
         d="m 0,0 c -147.447,0 -266.976,-119.53 -266.976,-266.977 0,-147.447 119.529,-266.977 266.976,-266.977 147.447,0 266.976,119.53 266.976,266.977 C 266.976,-119.53 147.447,0 0,0 m 0,-3 c 35.638,0 70.208,-6.979 102.751,-20.743 31.433,-13.296 59.664,-32.33 83.908,-56.574 24.245,-24.244 43.279,-52.475 56.574,-83.909 13.764,-32.542 20.743,-67.113 20.743,-102.751 0,-35.638 -6.979,-70.208 -20.743,-102.751 -13.295,-31.433 -32.329,-59.664 -56.574,-83.909 -24.244,-24.244 -52.475,-43.278 -83.908,-56.573 C 70.208,-523.974 35.638,-530.954 0,-530.954 c -35.638,0 -70.208,6.98 -102.75,20.744 -31.434,13.295 -59.665,32.329 -83.909,56.573 -24.244,24.245 -43.278,52.476 -56.574,83.909 -13.764,32.543 -20.743,67.113 -20.743,102.751 0,35.638 6.979,70.209 20.743,102.751 13.296,31.434 32.33,59.665 56.574,83.909 24.244,24.244 52.475,43.278 83.909,56.574 C -70.208,-9.979 -35.638,-3 0,-3"
         style="fill:#000000;fill-opacity:1;fill-rule:nonzero;stroke:none"
         id="path974" /></g><g
       id="g976"
       transform="translate(869.8806,404.1559)"><path
         d="M 0,0 H -266.976"
         style="fill:none;stroke:#000000;stroke-width:1;stroke-linecap:butt;stroke-linejoin:miter;stroke-miterlimit:10;stroke-dasharray:none;stroke-opacity:1"
         id="path978" /></g><g
       id="g980"
       transform="translate(1058.6616,592.9374)"><path
         d="M 0,0 -188.782,-188.781"
         style="fill:none;stroke:#000000;stroke-width:1;stroke-linecap:butt;stroke-linejoin:miter;stroke-miterlimit:10;stroke-dasharray:none;stroke-opacity:1"
         id="path982" /></g><g
       id="g984"
       transform="translate(1058.6616,215.3753)"><path
         d="M 0,0 -188.781,188.781"
         style="fill:none;stroke:#000000;stroke-width:1;stroke-linecap:butt;stroke-linejoin:miter;stroke-miterlimit:10;stroke-dasharray:none;stroke-opacity:1"
         id="path986" /></g><g
       id="g988"
       transform="translate(577.3925,404.1563)"><path
         d="M 0,0 V 0 H 50.886"
         style="fill:none;stroke:#000000;stroke-width:1;stroke-linecap:butt;stroke-linejoin:miter;stroke-miterlimit:10;stroke-dasharray:none;stroke-opacity:1"
         id="path990" /></g><g
       id="g992"
       transform="translate(585.9648,412.7287)"><path
         d="M 0,0 -8.572,-8.572 0,-17.145"
         style="fill:none;stroke:#000000;stroke-width:1;stroke-linecap:butt;stroke-linejoin:miter;stroke-miterlimit:10;stroke-dasharray:none;stroke-opacity:1"
         id="path994" /></g><g
       id="g996"
       transform="translate(806.6815,547.9341)"><path
         d="M 0,0 C -0.895,1.428 -2.778,1.861 -4.207,0.967 -4.6,0.724 -4.931,0.393 -5.173,0"
         style="fill:none;stroke:#000000;stroke-width:1.25;stroke-linecap:square;stroke-linejoin:miter;stroke-miterlimit:4;stroke-dasharray:none;stroke-opacity:1"
         id="path998" /></g><g
       id="g1000"
       transform="translate(813.1481,547.9341)"><path
         d="M 0,0 C 0.895,1.428 2.778,1.861 4.207,0.967 4.6,0.724 4.931,0.393 5.173,0"
         style="fill:none;stroke:#000000;stroke-width:1.25;stroke-linecap:square;stroke-linejoin:miter;stroke-miterlimit:4;stroke-dasharray:none;stroke-opacity:1"
         id="path1002" /></g><g
       id="g1004"
       transform="translate(802.1548,540.3141)"><path
         d="M 0,0 C 1.786,-4.286 6.708,-6.312 10.993,-4.527 13.04,-3.674 14.667,-2.047 15.52,0"
         style="fill:none;stroke:#000000;stroke-width:1.25;stroke-linecap:square;stroke-linejoin:miter;stroke-miterlimit:4;stroke-dasharray:none;stroke-opacity:1"
         id="path1006" /></g><g
       id="g1008"
       transform="translate(795.0415,544.8408)"><path
         d="m 0,0 c 0,-8.214 6.659,-14.873 14.873,-14.873 8.215,0 14.874,6.659 14.874,14.873 0,8.214 -6.659,14.873 -14.874,14.873 C 6.659,14.873 0,8.214 0,0 Z"
         style="fill:none;stroke:#000000;stroke-width:1.25;stroke-linecap:square;stroke-linejoin:miter;stroke-miterlimit:4;stroke-dasharray:none;stroke-opacity:1"
         id="path1010" /></g><g
       id="g1012"
       transform="translate(844.2917,375.0049)"><path
         d="M 0,0 C 7.613,-7.311 17.759,-11.394 28.314,-11.393 50.884,-11.39 69.178,6.909 69.175,29.479 69.172,52.049 50.873,70.343 28.303,70.34 15.144,70.34 1.727,64.823 -6.054,50.711 l -13.02,-24.353 c -0.288,-0.616 -0.438,-1.287 -0.438,-1.967 0.001,-2.554 2.072,-4.624 4.626,-4.623 h 6.371 V 11.393 H 11.393 L 0.099,0.119"
         style="fill:#ffffff;fill-opacity:1;fill-rule:nonzero;stroke:none"
         id="path1014" /></g><g
       id="g1016"
       transform="translate(856.2768,414.7194)"><path
         d="m 0,0 c -1.195,-0.011 -2.155,-0.988 -2.144,-2.183 0,-0.007 0,-0.013 0,-0.02 0.053,-1.203 1.039,-2.154 2.243,-2.163 1.206,0.021 2.166,1.016 2.144,2.222 v 0 C 2.202,-0.966 1.257,-0.021 0.079,0.02"
         style="fill:#000000;fill-opacity:1;fill-rule:nonzero;stroke:#000000;stroke-width:3;stroke-linecap:round;stroke-linejoin:round;stroke-miterlimit:4;stroke-dasharray:none;stroke-opacity:1"
         id="path1018" /></g><g
       id="g1020"
       transform="translate(856.118,387.0716)"><path
         d="M 0,0 H -19.907 V 8.376"
         style="fill:none;stroke:#000000;stroke-width:3;stroke-linecap:butt;stroke-linejoin:miter;stroke-miterlimit:4;stroke-dasharray:none;stroke-opacity:1"
         id="path1022" /></g><g
       id="g1024"
       transform="translate(844.8246,375.7981)"><path
         d="M 0,0 11.293,11.273"
         style="fill:none;stroke:#000000;stroke-width:3;stroke-linecap:round;stroke-linejoin:miter;stroke-miterlimit:4;stroke-dasharray:none;stroke-opacity:1"
         id="path1026" /></g><g
       id="g1028"
       transform="translate(836.2108,395.4473)"><path
         d="m 0,0 h -6.371 c -2.554,-0.001 -4.625,2.069 -4.626,4.623 0,0.68 0.149,1.351 0.438,1.966 L 2.461,30.943 C 10.241,45.054 23.658,50.572 36.818,50.572 59.387,50.575 77.686,32.281 77.689,9.711 77.692,-12.859 59.398,-31.158 36.828,-31.161 26.273,-31.162 16.127,-27.08 8.515,-19.768"
         style="fill:none;stroke:#000000;stroke-width:3;stroke-linecap:square;stroke-linejoin:miter;stroke-miterlimit:4;stroke-dasharray:none;stroke-opacity:1"
         id="path1030" /></g><g
       id="g1032"
       transform="translate(817.0912,256.9936)"><path
         d="M 0,0 -1.354,2.707 C -1.513,3.024 -1.899,3.153 -2.216,2.994 -2.34,2.932 -2.441,2.831 -2.503,2.707 l -1.421,-2.842 c -0.159,-0.317 -0.546,-0.446 -0.863,-0.287 -0.124,0.063 -0.225,0.163 -0.287,0.287 L -6.495,2.707 C -6.654,3.024 -7.041,3.153 -7.358,2.994 -7.482,2.932 -7.582,2.831 -7.645,2.707 l -1.421,-2.842 c -0.159,-0.317 -0.545,-0.446 -0.863,-0.287 -0.124,0.063 -0.224,0.163 -0.286,0.287 l -1.422,2.842 c -0.159,0.317 -0.545,0.446 -0.863,0.287 -0.124,-0.062 -0.224,-0.163 -0.286,-0.287 L -14.14,0"
         style="fill:none;stroke:#000000;stroke-width:1.25;stroke-linecap:square;stroke-linejoin:miter;stroke-miterlimit:7.5;stroke-dasharray:none;stroke-opacity:1"
         id="path1034" /></g><g
       id="g1036"
       transform="translate(795.2388,264.0879)"><path
         d="m 0,0 c 0,-8.164 6.618,-14.783 14.782,-14.783 8.165,0 14.783,6.619 14.783,14.783 0,8.164 -6.618,14.783 -14.783,14.783 C 6.618,14.783 0,8.164 0,0 Z"
         style="fill:none;stroke:#000000;stroke-width:1.25;stroke-linecap:square;stroke-linejoin:miter;stroke-miterlimit:7.5;stroke-dasharray:none;stroke-opacity:1"
         id="path1038" /></g><g
       id="g1040"
       transform="translate(813.0838,266.908)"><path
         d="M 0,0 C 0.807,-1.291 2.508,-1.683 3.799,-0.875 4.153,-0.654 4.453,-0.354 4.674,0"
         style="fill:none;stroke:#000000;stroke-width:1.25;stroke-linecap:square;stroke-linejoin:miter;stroke-miterlimit:8;stroke-dasharray:none;stroke-opacity:1"
         id="path1042" /></g><g
       id="g1044"
       transform="translate(807.2409,266.908)"><path
         d="M 0,0 C -0.807,-1.291 -2.508,-1.683 -3.799,-0.875 -4.153,-0.654 -4.453,-0.354 -4.674,0"
         style="fill:none;stroke:#000000;stroke-width:1.25;stroke-linecap:square;stroke-linejoin:miter;stroke-miterlimit:8;stroke-dasharray:none;stroke-opacity:1"
         id="path1046" /></g><g
       id="g1048"
       transform="translate(807.2409,270.2876)"><path
         d="M 0,0 -3.506,1.169"
         style="fill:none;stroke:#000000;stroke-width:1.25;stroke-linecap:square;stroke-linejoin:miter;stroke-miterlimit:8;stroke-dasharray:none;stroke-opacity:1"
         id="path1050" /></g><g
       id="g1052"
       transform="translate(813.0838,270.2876)"><path
         d="M 0,0 3.506,1.169"
         style="fill:none;stroke:#000000;stroke-width:1.25;stroke-linecap:square;stroke-linejoin:miter;stroke-miterlimit:8;stroke-dasharray:none;stroke-opacity:1"
         id="path1054" /></g><g
       id="g1056"
       transform="translate(1021.7488,395.9732)"><path
         d="m 0,0 c 0,-1.429 1.158,-2.587 2.587,-2.587 1.428,0 2.586,1.158 2.586,2.587 0,1.429 -1.158,2.587 -2.586,2.587 C 1.158,2.587 0,1.429 0,0 Z"
         style="fill:none;stroke:#000000;stroke-width:1.25;stroke-linecap:round;stroke-linejoin:round;stroke-miterlimit:4;stroke-dasharray:none;stroke-opacity:1"
         id="path1058" /></g><g
       id="g1060"
       transform="translate(1032.0955,395.9732)"><path
         d="M 0,0 H 19.4"
         style="fill:none;stroke:#000000;stroke-width:1.25;stroke-linecap:square;stroke-linejoin:round;stroke-miterlimit:4;stroke-dasharray:none;stroke-opacity:1"
         id="path1062" /></g><g
       id="g1064"
       transform="translate(1021.7488,385.6265)"><path
         d="m 0,0 c 0,-1.429 1.158,-2.587 2.587,-2.587 1.428,0 2.586,1.158 2.586,2.587 0,1.429 -1.158,2.587 -2.586,2.587 C 1.158,2.587 0,1.429 0,0 Z"
         style="fill:none;stroke:#000000;stroke-width:1.25;stroke-linecap:round;stroke-linejoin:round;stroke-miterlimit:4;stroke-dasharray:none;stroke-opacity:1"
         id="path1066" /></g><g
       id="g1068"
       transform="translate(1032.0955,385.6265)"><path
         d="M 0,0 H 19.4"
         style="fill:none;stroke:#000000;stroke-width:1.25;stroke-linecap:square;stroke-linejoin:round;stroke-miterlimit:4;stroke-dasharray:none;stroke-opacity:1"
         id="path1070" /></g><g
       id="g1072"
       transform="translate(1021.7488,375.2799)"><path
         d="m 0,0 c 0,-1.429 1.158,-2.587 2.587,-2.587 1.428,0 2.586,1.158 2.586,2.587 0,1.429 -1.158,2.587 -2.586,2.587 C 1.158,2.587 0,1.429 0,0 Z"
         style="fill:none;stroke:#000000;stroke-width:1.25;stroke-linecap:round;stroke-linejoin:round;stroke-miterlimit:4;stroke-dasharray:none;stroke-opacity:1"
         id="path1074" /></g><g
       id="g1076"
       transform="translate(1032.0955,375.2799)"><path
         d="M 0,0 H 19.4"
         style="fill:none;stroke:#000000;stroke-width:1.25;stroke-linecap:square;stroke-linejoin:round;stroke-miterlimit:4;stroke-dasharray:none;stroke-opacity:1"
         id="path1078" /></g></g></svg>
